<?xml version="1.0" encoding="UTF-8"?>
<svg id="Layer_2" data-name="Layer 2" xmlns="http://www.w3.org/2000/svg" viewBox="0 0 64.5 109.88">
  <defs>
    <style>
      .cls-1, .cls-2, .cls-3, .cls-4 {
        stroke: #000;
      }

      .cls-1, .cls-5 {
        fill: none;
        stroke-linecap: round;
        stroke-linejoin: round;
        stroke-width: 3.51px;
      }

      .cls-2 {
        stroke-width: .22px;
      }

      .cls-2, .cls-3, .cls-4 {
        stroke-miterlimit: 10;
      }

      .cls-3 {
        stroke-width: .65px;
      }

      .cls-5 {
        stroke: #fbdb59;
      }

      .cls-4 {
        fill: #fbdb59;
      }
    </style>
  </defs>
  <g id="Artboard_2" data-name="Artboard 2">
    <g id="Yellow">
      <g id="Yellow_inline" data-name="Yellow inline">
        <g id="lgoo">
          <g>
            <ellipse class="cls-1" cx="33.77" cy="63.93" rx="15.79" ry="5.26"/>
            <path class="cls-1" d="M17.98,63.93v24.57c0,2.91,7.07,5.26,15.79,5.26s15.79-2.36,15.79-5.26v-24.57"/>
            <path class="cls-1" d="M17.98,76.21c0,2.91,7.07,5.26,15.79,5.26s15.79-2.36,15.79-5.26"/>
          </g>
          <path class="cls-2" d="M14.26,47.24c1.87,1.07,2.07,1.17,3.71,2.15-18.59,30.89,3.35,61.03,6.44,60.37-5.94-.37-16.98-5.57-21.95-7.9.72-19.39,2.7-42.29,11.8-54.62Z"/>
          <path class="cls-2" d="M52.59,47.24c-1.87,1.07-2.07,1.17-3.71,2.15,18.59,30.89-3.35,61.03-6.44,60.37,5.94-.37,16.98-5.57,21.95-7.9-.72-19.39-2.7-42.29-11.8-54.62Z"/>
          <ellipse class="cls-2" cx="26.37" cy="33.02" rx="2.02" ry="3.75" transform="translate(-13.68 46.5) rotate(-70)"/>
          <ellipse class="cls-2" cx="41.07" cy="33.02" rx="3.75" ry="2.02" transform="translate(-8.82 16.04) rotate(-20)"/>
          <path class="cls-3" d="M62.02,41.1c-1.57-5.07-3.96-11.1-7.7-17.44-1.79-3.03-3.64-5.72-5.45-8.08,0,0-7.51-10.06-15.22-13.46C11.12,15.8,5.84,39.96,5.52,41.12c14.05,1.68,17.96,7.16,17.96,7.16,0,0,1.65-1.76,2.34-2.4-3.35-4.1-12.14-7.99-12.14-7.99,0,0,3.88-10.83,6.51-13.75,6.35-11.05,13.46-.59,13.46-.59,0,0,5.89-9.89,12.58-.05.79,1.46,5.27,7.35,7.32,14.17.1.35-9.93,5.74-12.02,8.38.69.87,1.38,1.73,2.07,2.6,4.4-3.98,7.27-5.48,18.42-7.54Z"/>
        </g>
        <g id="lgoo-2" data-name="lgoo">
          <g>
            <ellipse class="cls-5" cx="31.82" cy="62.37" rx="15.79" ry="5.26"/>
            <path class="cls-5" d="M16.03,62.37v24.57c0,2.91,7.07,5.26,15.79,5.26s15.79-2.36,15.79-5.26v-24.57"/>
            <path class="cls-5" d="M16.03,74.65c0,2.91,7.07,5.26,15.79,5.26s15.79-2.36,15.79-5.26"/>
          </g>
          <path class="cls-4" d="M12.31,45.68c1.87,1.07,2.07,1.17,3.71,2.15-18.59,30.89,3.35,61.03,6.44,60.37-5.94-.37-16.98-5.57-21.95-7.9.72-19.39,2.7-42.29,11.8-54.62Z"/>
          <path class="cls-4" d="M50.64,45.68c-1.87,1.07-2.07,1.17-3.71,2.15,18.59,30.89-3.35,61.03-6.44,60.37,5.94-.37,16.98-5.57,21.95-7.9-.72-19.39-2.7-42.29-11.8-54.62Z"/>
          <ellipse class="cls-4" cx="24.42" cy="31.46" rx="2.02" ry="3.75" transform="translate(-13.49 43.65) rotate(-70)"/>
          <ellipse class="cls-4" cx="39.12" cy="31.46" rx="3.75" ry="2.02" transform="translate(-8.4 15.28) rotate(-20)"/>
          <path class="cls-4" d="M60.08,39.55c-1.57-5.07-3.96-11.1-7.7-17.44-1.79-3.03-3.64-5.72-5.45-8.08,0,0-7.51-10.06-15.22-13.46C9.17,14.24,3.89,38.41,3.57,39.56c14.05,1.68,17.96,7.16,17.96,7.16,0,0,1.65-1.76,2.34-2.4-3.35-4.1-12.14-7.99-12.14-7.99,0,0,3.88-10.83,6.51-13.75,6.35-11.05,13.46-.59,13.46-.59,0,0,5.89-9.89,12.58-.05.79,1.46,5.27,7.35,7.32,14.17.1.35-9.93,5.74-12.02,8.38.69.87,1.38,1.73,2.07,2.6,4.4-3.98,7.27-5.48,18.42-7.54Z"/>
        </g>
      </g>
    </g>
  </g>
</svg>